<?xml version="1.0" standalone="no"?>
<!DOCTYPE svg PUBLIC "-//W3C//DTD SVG 20010904//EN"
 "http://www.w3.org/TR/2001/REC-SVG-20010904/DTD/svg10.dtd">
<svg version="1.0" xmlns="http://www.w3.org/2000/svg"
 width="260.000000pt" height="260.000000pt" viewBox="0 0 260.000000 260.000000"
 preserveAspectRatio="xMidYMid meet">
<metadata>
Created by potrace 1.11, written by Peter Selinger 2001-2013
</metadata>
<g transform="translate(0.000000,260.000000) scale(0.100000,-0.100000)"
fill="#000000" stroke="none">
<path d="M1222 2568 c-7 -18 -12 -35 -11 -37 0 -2 -4 -7 -10 -10 -6 -4 -12
-31 -14 -61 -4 -59 -14 -90 -28 -90 -5 0 -9 9 -9 20 0 11 -4 28 -9 38 -5 9
-20 40 -32 67 -28 64 -47 85 -67 78 -28 -10 -32 -24 -32 -105 0 -74 -1 -78
-23 -78 -22 0 -22 -2 -22 -112 1 -78 5 -113 13 -116 14 -4 16 -82 2 -82 -5 0
-10 -7 -10 -16 0 -13 -4 -11 -18 7 -12 15 -20 44 -21 79 -7 163 -21 229 -52
237 -10 3 -19 12 -19 20 0 9 -6 13 -15 10 -8 -4 -17 -2 -20 3 -4 7 -13 7 -24
0 -10 -5 -21 -6 -25 -3 -3 3 -6 -1 -6 -11 0 -9 -4 -15 -9 -12 -5 3 -19 -18
-32 -48 -18 -46 -24 -52 -36 -41 -7 8 -13 19 -13 25 0 7 -7 10 -15 6 -8 -3
-15 -1 -15 5 0 11 -63 79 -74 79 -3 0 -6 -7 -6 -15 0 -8 -7 -15 -15 -15 -8 0
-15 -5 -15 -12 0 -6 -7 -3 -16 8 -8 10 -12 12 -8 4 6 -12 5 -13 -7 -5 -8 6
-21 10 -29 9 -8 -1 -27 -2 -42 -3 l-28 -1 0 -108 c0 -62 4 -112 10 -118 7 -7
10 -47 8 -100 -3 -74 -6 -89 -20 -92 -22 -4 -26 24 -32 193 -5 149 -23 225
-51 225 -7 0 -15 6 -18 14 -3 7 -15 16 -26 19 -13 3 -19 1 -15 -5 4 -6 -1 -8
-14 -4 -39 13 -86 -61 -98 -153 -6 -47 -5 -51 14 -51 11 0 23 -7 26 -16 5 -13
9 -14 21 -4 8 7 15 21 15 31 0 11 4 19 9 19 5 0 12 8 14 18 4 13 5 12 6 -5 0
-12 5 -23 11 -25 8 -2 16 -72 11 -100 0 -4 -14 -3 -30 2 -32 9 -40 5 -62 -30
-26 -41 -39 -120 -34 -210 5 -101 7 -114 25 -162 12 -33 18 -38 46 -38 18 0
35 6 38 13 3 8 9 6 20 -7 9 -11 16 -16 16 -10 0 5 22 7 50 6 l50 -4 0 52 c0
46 2 50 15 36 11 -10 15 -36 15 -86 0 -105 2 -103 -197 -104 -91 -1 -167 2
-169 6 -12 18 -44 -18 -44 -49 0 -30 5 -35 27 -32 3 0 10 -6 15 -14 4 -9 17
-14 28 -12 12 2 24 -4 30 -15 7 -13 18 -17 34 -14 15 2 26 -2 30 -11 3 -8 15
-15 26 -15 12 0 28 -6 36 -14 8 -8 23 -13 34 -11 12 2 25 -4 32 -14 7 -12 18
-16 31 -13 12 3 23 -2 29 -12 7 -13 17 -16 34 -12 20 5 24 3 24 -14 0 -12 4
-19 9 -16 5 3 14 -1 21 -9 21 -25 -18 -73 -54 -66 -5 1 -13 -3 -17 -10 -4 -7
-18 -14 -30 -16 -13 -2 -26 -8 -29 -14 -4 -5 -20 -12 -36 -15 -16 -3 -30 -9
-32 -15 -2 -5 -15 -9 -29 -9 -13 0 -32 -7 -40 -16 -10 -10 -25 -13 -40 -9 -15
3 -22 2 -19 -4 8 -12 -23 -29 -46 -26 -9 2 -19 -3 -22 -11 -3 -8 -12 -14 -19
-14 -20 0 -40 -49 -27 -64 7 -9 68 -12 232 -12 198 1 224 -1 237 -16 11 -13
18 -14 28 -6 10 8 13 6 14 -6 1 -9 2 -22 3 -28 1 -18 -29 -59 -37 -51 -4 3 -7
-1 -7 -10 0 -9 -7 -17 -15 -17 -8 0 -15 -7 -15 -16 0 -8 -4 -13 -9 -9 -5 3
-13 -4 -16 -16 -4 -11 -9 -18 -12 -15 -7 7 -63 -52 -63 -66 0 -6 -3 -9 -6 -5
-7 7 -74 -58 -74 -73 0 -6 -4 -9 -8 -6 -10 6 -42 -29 -42 -45 0 -5 -5 -7 -11
-4 -7 5 -9 -7 -7 -36 3 -37 6 -43 28 -44 14 -1 30 5 37 15 8 12 21 16 38 13
19 -4 25 -1 25 11 0 10 4 15 9 12 5 -4 12 0 14 6 4 10 6 10 6 1 1 -16 31 -5
31 12 0 7 10 11 26 9 18 -2 33 5 44 19 17 20 17 20 27 1 5 -10 8 -59 8 -107
-2 -66 1 -90 12 -94 19 -7 19 -229 0 -236 -10 -4 -13 -31 -13 -103 l1 -99 70
0 70 0 -1 95 c-1 52 -5 106 -9 119 -6 17 -5 22 4 17 7 -4 18 5 29 23 16 30 31
40 33 24 1 -5 2 -46 3 -93 2 -47 8 -109 15 -137 l13 -53 109 0 109 0 1 63 c0
34 1 79 2 101 1 23 -3 40 -10 43 -10 4 -13 45 -13 158 0 158 4 173 41 154 13
-6 15 -17 9 -55 -19 -125 -6 -333 26 -421 l15 -42 105 0 104 0 0 104 c0 70 -4
105 -11 105 -15 0 -8 168 7 178 6 4 14 19 18 34 4 19 11 25 21 22 9 -4 15 0
15 10 0 20 26 21 37 2 4 -8 13 -15 18 -15 15 -1 12 -26 -2 -27 -7 -1 -17 -2
-22 -3 -35 -5 -67 -220 -47 -311 3 -14 9 -38 13 -55 4 -17 6 -33 5 -37 -3 -14
106 -9 111 5 4 9 6 9 6 0 1 -9 19 -13 55 -13 53 0 55 1 50 26 -4 24 -3 25 11
11 8 -9 15 -20 15 -26 0 -6 7 -11 15 -11 8 0 15 8 15 18 1 16 1 16 11 0 8 -14
23 -18 69 -18 52 0 72 8 75 30 1 3 7 23 14 45 14 47 27 173 16 163 -4 -4 -20
7 -36 23 -24 25 -29 27 -30 12 -6 -89 -17 -114 -39 -88 -31 37 -19 303 12 293
11 -4 14 -13 24 -79 5 -31 10 -36 33 -34 23 1 26 6 29 38 4 43 11 46 31 14 16
-25 24 -194 10 -203 -5 -3 -9 -52 -9 -110 l0 -105 62 3 63 3 -3 95 c-1 52 -4
122 -6 155 -3 33 -2 53 1 45 3 -8 10 -18 16 -21 5 -4 15 -47 22 -97 7 -50 21
-111 30 -136 l18 -46 62 0 62 0 12 42 c18 58 21 75 28 142 4 44 2 57 -7 51 -7
-4 -13 1 -17 14 -3 11 -9 18 -14 16 -4 -3 -12 2 -17 11 -7 13 -11 3 -16 -37
-8 -62 -22 -93 -30 -69 -20 58 -23 259 -5 299 l13 30 13 -31 c7 -17 13 -42 13
-57 0 -34 10 -46 38 -47 25 -2 24 -8 27 136 1 58 3 110 4 116 2 14 51 13 51
-2 0 -16 38 -25 44 -10 2 6 8 1 11 -11 6 -18 13 -22 32 -19 15 3 31 -2 43 -14
16 -16 25 -18 44 -10 23 8 24 12 15 42 -5 18 -9 34 -9 35 0 0 -25 27 -55 58
-30 31 -55 60 -55 65 0 6 -4 9 -8 8 -4 -2 -49 39 -100 89 -67 68 -92 99 -92
118 0 16 6 25 16 25 8 0 21 6 28 13 9 9 70 12 240 11 248 -1 249 0 225 55 -9
21 -17 27 -25 20 -8 -6 -13 -3 -17 10 -4 15 -11 19 -31 15 -18 -3 -28 1 -35
15 -7 13 -19 18 -37 16 -15 -1 -28 3 -31 11 -3 8 -18 14 -34 14 -18 0 -29 5
-29 14 0 9 -10 13 -30 11 -20 -2 -31 3 -35 14 -3 12 -15 16 -34 15 -18 -1 -32
4 -35 12 -3 8 -12 14 -21 14 -9 0 -25 8 -36 18 -15 15 -18 24 -10 43 5 13 10
20 10 15 1 -6 10 0 21 11 12 14 27 19 40 16 14 -4 20 -1 20 10 0 10 8 14 25
13 14 -2 31 5 41 15 8 9 25 16 35 14 11 -2 23 2 26 10 3 9 18 15 34 15 20 0
29 5 29 16 0 11 6 13 19 9 13 -4 27 1 38 12 10 10 27 18 38 18 22 0 45 16 38
27 -2 4 2 5 10 2 18 -6 27 14 20 47 l-5 25 -235 0 c-203 -1 -238 1 -254 15
-20 17 -26 59 -9 59 6 0 10 7 10 15 0 11 12 15 44 15 46 0 59 12 49 48 -2 11
0 23 6 26 7 5 11 -6 11 -32 l0 -40 54 -4 c53 -3 55 -2 58 24 3 15 4 63 3 107
-2 47 1 78 7 75 5 -3 8 -49 7 -102 l-2 -97 55 -5 c34 -3 59 -1 66 6 12 13 13
216 1 224 -4 3 -9 111 -11 240 l-3 235 -48 -1 c-27 -1 -50 -4 -53 -6 -11 -11
-9 -201 2 -223 6 -12 12 -47 12 -78 0 -50 -3 -56 -24 -60 -13 -2 -24 -1 -25 2
0 3 -3 60 -5 125 -5 129 -22 217 -50 247 -21 23 -34 24 -34 2 0 -9 -3 -13 -7
-9 -4 4 -15 -8 -25 -26 l-17 -33 -1 28 c0 24 -4 27 -32 28 -82 3 -143 -3 -150
-14 -6 -9 -8 -9 -8 1 0 6 -5 12 -10 12 -6 0 -20 9 -32 20 -14 13 -26 16 -37
11 -9 -5 -22 -6 -28 -4 -7 3 -13 -3 -13 -12 0 -9 -4 -14 -9 -11 -27 17 -79
-142 -59 -179 11 -19 -9 -68 -24 -59 -4 3 -8 -3 -8 -12 0 -34 -12 -5 -15 38
-10 129 -18 174 -38 204 -24 36 -37 43 -37 19 0 -8 -6 -15 -13 -15 -17 0 -46
-51 -39 -69 3 -8 0 -11 -6 -7 -6 4 -10 41 -9 94 1 109 -8 158 -31 164 -31 8
-40 -2 -72 -92 -29 -81 -34 -88 -58 -88 -15 0 -39 0 -54 -1 l-27 -1 1 -97 c2
-126 -7 -165 -35 -161 -11 2 -22 9 -25 16 -2 7 0 12 5 11 25 -4 28 8 29 116 1
97 -2 115 -15 117 -13 3 -16 20 -17 103 0 99 0 100 -25 103 -20 2 -27 -4 -37
-30z m823 -412 c11 -9 14 -35 12 -119 -1 -59 -6 -107 -11 -106 -5 0 -12 -5
-16 -12 -6 -9 -12 -9 -23 3 -23 23 -22 273 1 348 l17 55 3 -79 c2 -54 7 -83
17 -90z m-1212 47 c3 -18 4 -33 3 -33 -2 0 -15 11 -30 25 -23 21 -25 27 -14
45 16 25 34 9 41 -37z m-260 -45 c3 -12 5 -66 4 -120 -2 -75 -6 -101 -17 -108
-9 -6 -17 -5 -22 3 -9 14 -10 172 -2 216 7 36 29 41 37 9z m1057 -43 c8 -57 2
-67 -22 -43 -15 15 -18 27 -14 54 9 45 30 39 36 -11z m560 -61 c0 -52 -4 -73
-14 -77 -8 -3 -17 -3 -20 0 -9 9 -7 168 1 177 17 17 33 -32 33 -100z m-1485
-127 c0 -39 -4 -52 -15 -52 -15 0 -18 36 -11 130 l3 30 12 -28 c7 -15 12 -51
11 -80z m481 61 c9 -28 -4 -38 -51 -38 -25 0 -45 -5 -48 -12 -3 -7 -6 -4 -6 7
0 22 17 50 37 56 29 10 63 3 68 -13z m167 13 c4 -1 7 -12 7 -26 0 -18 -5 -25
-20 -25 -11 0 -20 6 -20 13 0 8 -3 7 -10 -3 -10 -17 -20 -10 -24 17 -4 22 8
30 37 27 12 -1 25 -3 30 -3z m547 -63 c0 -65 -1 -70 -15 -52 -8 10 -15 28 -15
38 0 19 21 86 27 86 2 0 3 -32 3 -72z m-402 23 c7 -20 -6 -41 -22 -35 -14 5
-28 39 -19 47 8 9 37 0 41 -12z m-1238 -36 c1 6 5 0 11 -13 5 -13 6 -35 3 -48
l-6 -25 -12 23 c-7 13 -12 41 -13 63 -1 34 0 36 7 15 4 -14 9 -20 10 -15z
m727 -2 c-3 -3 -11 -2 -17 2 -8 5 -7 11 2 22 12 15 13 14 16 -1 2 -10 1 -20
-1 -23z m647 -38 c-6 -15 -8 -15 -16 -2 -4 8 -5 23 -2 32 6 15 8 15 16 2 4 -8
5 -23 2 -32z m-668 10 c1 -8 -2 -17 -7 -21 -5 -3 -9 7 -9 22 0 27 12 26 16 -1z
m805 -75 c5 0 9 -15 9 -33 0 -18 4 -37 9 -42 5 -6 12 -21 16 -35 7 -22 6 -23
-9 -8 -9 9 -16 20 -16 24 0 4 -7 12 -15 18 -16 12 -27 71 -17 95 6 14 7 13 10
-1 2 -10 8 -18 13 -18z m-1037 -96 c10 -27 7 -51 -9 -64 -28 -24 -78 -156 -96
-254 -17 -99 -3 -260 30 -341 33 -79 56 -125 63 -125 4 0 8 -6 8 -13 0 -7 9
-19 20 -27 11 -8 20 -19 20 -25 0 -13 60 -83 60 -70 1 6 7 -1 15 -15 9 -16 15
-19 15 -10 1 9 5 6 10 -7 6 -15 15 -21 25 -17 10 4 15 0 15 -10 0 -9 8 -16 19
-16 10 0 22 -7 25 -16 4 -10 14 -14 26 -11 13 3 21 -1 25 -14 4 -10 10 -19 15
-19 5 0 7 -6 4 -13 -7 -19 -74 -9 -74 11 0 8 -3 12 -7 9 -3 -4 -13 -1 -21 6
-13 10 -14 9 -7 -3 4 -8 -2 -5 -14 8 -12 12 -26 20 -32 17 -5 -4 -9 1 -9 10 0
11 -5 15 -15 11 -10 -4 -15 1 -15 14 0 13 -5 18 -15 14 -9 -4 -15 0 -15 10 0
9 -7 16 -15 16 -8 0 -15 7 -15 16 0 8 -4 12 -10 9 -6 -3 -10 0 -10 8 0 7 -11
20 -25 27 -13 7 -23 16 -22 19 2 6 -33 62 -44 71 -3 3 -12 22 -18 43 -7 20
-16 37 -20 37 -9 0 -48 130 -56 190 -10 68 -12 153 -4 170 4 8 9 35 12 60 7
55 56 190 77 210 3 3 11 17 17 32 13 28 43 66 54 67 4 1 10 -6 13 -15z m1139
-31 c3 7 8 4 13 -8 4 -11 14 -26 21 -33 7 -7 13 -20 13 -28 0 -8 5 -14 11 -14
5 0 8 -4 4 -9 -3 -5 -1 -12 5 -16 9 -6 31 -71 46 -140 13 -61 16 -219 4 -279
-20 -104 -90 -263 -110 -251 -17 10 -21 75 -7 108 57 127 72 231 55 372 -7 56
-52 199 -68 215 -3 3 -11 17 -19 33 -8 15 -18 27 -22 27 -5 0 -6 6 -3 14 4 11
12 13 29 6 16 -6 25 -5 28 3z m-91 -878 c3 -24 0 -35 -9 -35 -7 0 -12 -6 -10
-12 1 -7 -4 -12 -11 -10 -7 1 -15 -5 -18 -13 -4 -8 -12 -15 -20 -15 -7 0 -17
-7 -22 -16 -7 -12 -19 -15 -46 -12 -22 2 -36 0 -36 -7 0 -12 -36 -45 -49 -45
-5 0 -11 -7 -15 -15 -3 -8 -12 -12 -21 -9 -8 4 -15 1 -15 -6 0 -10 -3 -10 -15
0 -12 10 -15 9 -15 -4 0 -10 -4 -14 -10 -11 -28 17 10 73 49 70 12 -1 26 6 31
16 6 11 17 15 30 12 14 -4 20 0 20 11 0 9 7 16 16 16 8 0 22 7 31 15 8 8 19
13 24 10 5 -4 9 4 9 17 0 16 3 19 9 10 6 -10 14 -5 29 20 12 18 22 29 22 25 0
-4 6 -2 14 5 8 7 11 17 8 22 -3 5 0 6 5 3 6 -4 13 -23 15 -42z m-1102 -100 c0
-8 -4 -15 -10 -15 -5 0 -7 7 -4 15 4 8 8 15 10 15 2 0 4 -7 4 -15z m1260 -19
c0 8 20 10 62 5 4 -1 5 -8 2 -16 -4 -8 -10 -13 -15 -10 -7 5 -40 -46 -39 -60
1 -10 -13 -80 -17 -88 -8 -13 -33 42 -50 107 -12 48 -12 60 -2 67 7 4 17 5 21
3 4 -3 8 1 8 8 1 8 6 6 15 -6 8 -11 15 -15 15 -10z m-1283 1 c9 -6 7 -13 -7
-27 -11 -11 -20 -33 -20 -49 0 -17 -4 -32 -8 -35 -5 -3 -8 12 -7 32 2 44 -4
64 -16 56 -5 -3 -9 1 -9 10 0 22 40 30 67 13z m62 -37 c0 -14 -6 -38 -14 -55
-13 -29 -13 -29 -14 31 -1 33 2 64 6 67 10 11 23 -14 22 -43z m544 -39 c15 -2
6 -29 -15 -47 -13 -10 -20 -15 -15 -10 4 5 0 17 -9 27 -19 21 -11 39 14 34 9
-2 20 -4 25 -4z m-432 -323 c6 -62 4 -127 -4 -145 l-10 -23 -12 23 c-9 19 -11
59 -6 140 1 19 30 24 32 5z m556 -10 c12 -29 7 -112 -9 -141 l-12 -22 -7 25
c-4 14 -7 48 -8 77 -2 78 15 107 36 61z"/>
<path d="M2333 2539 c5 -61 24 -96 52 -96 8 0 15 6 15 13 0 7 5 14 12 16 6 2
13 31 16 66 l4 62 -52 0 -53 0 6 -61z"/>
</g>
</svg>
